<?xml version="1.0" standalone="no"?>
<!DOCTYPE svg PUBLIC "-//W3C//DTD SVG 20010904//EN"
 "http://www.w3.org/TR/2001/REC-SVG-20010904/DTD/svg10.dtd">
<svg version="1.0" xmlns="http://www.w3.org/2000/svg"
 width="16.000000pt" height="16.000000pt" viewBox="0 0 16.000000 16.000000"
 preserveAspectRatio="xMidYMid meet">
<metadata>
Created by potrace 1.11, written by Peter Selinger 2001-2013
</metadata>
<g transform="translate(0.000000,16.000000) scale(0.002878,-0.002878)"
fill="#000000" stroke="none">
<path d="M2724 5474 c-74 -130 -77 -135 -106 -184 -14 -25 -40 -71 -58 -103
l-31 -57 251 0 c139 0 250 4 248 8 -11 28 -243 422 -248 422 -4 0 -29 -39 -56
-86z"/>
<path d="M1815 5055 c0 -137 4 -245 9 -245 5 0 87 45 183 101 96 55 188 108
205 117 17 10 31 21 32 26 1 8 -311 195 -361 216 -11 5 -24 14 -28 19 -3 6
-14 11 -23 11 -16 0 -17 -22 -17 -245z"/>
<path d="M3522 5182 c-112 -64 -203 -121 -204 -127 0 -5 15 -18 33 -28 19 -11
106 -61 194 -112 88 -50 169 -97 181 -103 20 -11 20 -11 20 235 -1 155 -5 248
-11 250 -5 1 -101 -50 -213 -115z"/>
<path d="M2708 4955 c-2 -1 -34 -5 -73 -8 -130 -12 -342 -78 -460 -144 -22
-12 -53 -30 -70 -39 -49 -27 -172 -121 -237 -182 -63 -60 -162 -182 -216 -267
-68 -109 -145 -303 -167 -424 -29 -158 -20 -432 19 -578 3 -13 8 -32 11 -44
23 -108 126 -306 222 -432 97 -126 275 -277 419 -357 126 -69 315 -131 459
-149 85 -11 311 -7 380 7 339 71 571 206 800 467 95 108 206 318 249 470 41
147 50 209 50 360 0 188 -16 279 -76 444 -107 293 -321 545 -603 708 -69 39
-231 108 -279 117 -11 3 -48 11 -81 20 -33 8 -85 18 -115 22 -55 6 -227 13
-232 9z m191 -670 c154 -23 342 -151 433 -296 74 -115 107 -234 103 -366 -4
-122 -24 -196 -77 -293 -196 -352 -638 -457 -958 -225 -129 93 -206 199 -252
347 -29 95 -31 271 -4 363 66 220 250 400 471 459 91 24 178 27 284 11z"/>
<path d="M1115 4602 c-4 -5 6 -23 133 -242 52 -91 101 -171 107 -178 10 -11
25 9 78 100 36 62 73 127 84 145 72 124 94 165 90 170 -6 5 -487 10 -492 5z"/>
<path d="M3950 4597 c0 -8 227 -407 240 -421 5 -4 16 3 25 18 38 57 233 401
229 405 -7 7 -494 6 -494 -2z"/>
<path d="M1265 3878 c-11 -6 -109 -63 -218 -126 l-198 -114 217 -125 c119 -68
218 -123 220 -120 2 2 3 115 2 250 -3 242 -3 245 -23 235z"/>
<path d="M4270 3640 c0 -137 3 -250 6 -250 15 0 432 246 426 252 -7 6 -362
212 -409 237 l-23 12 0 -251z"/>
<path d="M1328 3053 c-20 -32 -47 -78 -60 -103 -14 -25 -53 -92 -87 -150 -33
-58 -61 -111 -61 -117 0 -10 55 -13 245 -13 139 0 245 4 245 9 0 8 -232 416
-243 427 -2 2 -20 -22 -39 -53z"/>
<path d="M4184 3092 c-6 -9 -22 -37 -36 -62 -14 -25 -62 -107 -106 -182 -44
-76 -83 -147 -87 -158 -6 -20 -2 -20 244 -20 138 0 251 2 251 4 0 2 -23 43
-51 92 -55 94 -57 97 -139 242 -29 51 -55 94 -59 97 -4 2 -12 -4 -17 -13z"/>
<path d="M1819 2468 c-1 -2 -3 -115 -4 -251 -1 -202 1 -247 12 -243 7 3 84 47
170 97 87 51 179 104 206 118 26 14 47 28 47 31 0 5 -416 250 -425 250 -3 0
-6 -1 -6 -2z"/>
<path d="M3665 2432 c-33 -21 -126 -75 -207 -122 -82 -46 -148 -87 -148 -90 0
-4 408 -241 428 -248 4 -1 7 110 7 248 0 162 -3 250 -10 249 -5 0 -37 -17 -70
-37z"/>
<path d="M2536 2142 c-2 -4 22 -52 53 -107 153 -264 175 -301 185 -312 9 -10
16 -4 31 25 19 36 38 69 158 273 32 53 57 104 57 113 0 14 -25 16 -239 16
-132 0 -242 -3 -245 -8z"/>
<path d="M3270 2084 c-41 -13 -102 -29 -135 -35 -71 -14 -82 -22 -115 -86 -14
-26 -28 -50 -31 -53 -3 -3 -35 -57 -71 -120 -133 -235 -132 -232 -144 -215 -7
9 -69 115 -139 236 -95 163 -132 220 -148 223 -12 2 -62 14 -112 26 -49 12
-95 22 -102 24 -7 1 -16 5 -19 9 -4 4 -16 7 -26 7 -22 0 -161 -74 -178 -95
-10 -12 33 -151 211 -687 122 -370 264 -801 316 -958 106 -321 118 -342 194
-346 55 -2 85 12 109 51 16 25 148 404 154 440 1 6 7 24 13 40 19 49 475 1429
478 1445 2 16 -10 24 -115 81 l-65 36 -75 -23z"/>
</g>
</svg>
